<svg width="1495" height="154" viewBox="0 0 1495 154" fill="none" xmlns="http://www.w3.org/2000/svg">
<rect width="1495" height="154" fill="#4F4F4F"/>
<path d="M1356.82 64.393L1373.33 61.5522L1374.55 65.7406L1358.04 68.5815L1356.82 64.393ZM1388.39 61.1607C1388.08 61.2137 1387.76 61.1955 1387.44 61.1075C1387.12 61.0195 1386.82 60.864 1386.55 60.6523L1376.1 52.2804L1354.39 56.0161L1353.17 51.8276L1375.87 47.9215C1376.18 47.8685 1376.51 47.8866 1376.83 47.9746C1377.15 48.0626 1377.45 48.2182 1377.71 48.4298L1386.6 55.5468L1392.63 37.2208C1392.74 36.9107 1392.91 36.6383 1393.16 36.4266C1393.4 36.2148 1393.7 36.0699 1394.02 36.0039C1394.35 35.9379 1394.7 35.9527 1395.04 36.0473C1395.38 36.1418 1395.7 36.3132 1395.97 36.5471L1403.74 43.1275L1410.96 41.8847L1412.18 46.0731L1403.92 47.4936C1403.6 47.5487 1403.26 47.5274 1402.94 47.4313C1402.61 47.3352 1402.3 47.167 1402.03 46.9399L1395.84 41.6937L1389.84 59.9333C1389.74 60.2384 1389.56 60.5071 1389.32 60.7173C1389.09 60.9276 1388.8 61.0736 1388.48 61.1433L1388.39 61.1607ZM1368.1 36.0663L1365.05 25.5951L1367.12 25.24C1369.3 24.8606 1371.15 23.6162 1372.24 21.7795C1373.33 19.9428 1373.58 17.664 1372.94 15.4426L1371.11 9.15993L1364.92 10.2252C1362.81 10.5924 1361.02 11.7722 1359.92 13.519C1358.28 11.7339 1356.24 10.3616 1354 9.54531C1351.76 8.72898 1349.41 8.49841 1347.19 8.87762L1341 9.94293L1342.83 16.2256C1343.8 19.5563 1346.03 22.5255 1349.04 24.4817C1352.04 26.4379 1355.58 27.2214 1358.86 26.6604L1360.92 26.3053L1363.97 36.7765L1349.52 39.2622L1350.74 43.4507L1379.63 38.4792L1378.41 34.2907L1368.1 36.0663ZM1366.14 14.4137L1368.2 14.0586L1368.81 16.1528C1369.13 17.2635 1369.01 18.4031 1368.46 19.3215C1367.91 20.2399 1366.99 20.8621 1365.9 21.0515L1363.84 21.4066L1363.23 19.3124C1362.91 18.2017 1363.03 17.0621 1363.58 16.1437C1364.12 15.2253 1365.04 14.6031 1366.14 14.4137ZM1357.64 22.4719C1355.45 22.8457 1353.1 22.3233 1351.09 21.0192C1349.09 19.7151 1347.6 17.7358 1346.95 15.5154L1346.34 13.4212L1348.41 13.0661C1350.6 12.6923 1352.95 13.2147 1354.96 14.5188C1356.96 15.8229 1358.45 17.8022 1359.1 20.0226L1359.71 22.1168L1357.64 22.4719Z" fill="white" fill-opacity="0.15"/>
<path fill-rule="evenodd" clip-rule="evenodd" d="M1432.62 95.027C1433.11 95.0795 1433.58 95.2147 1434.01 95.4248C1434.43 95.6349 1434.81 95.9158 1435.11 96.2515C1435.41 96.5871 1435.63 96.9709 1435.76 97.3809C1435.89 97.791 1435.93 98.2192 1435.86 98.6411L1434.99 104.713H1444.88L1445.87 97.8385C1445.99 96.9867 1446.5 96.212 1447.28 95.685C1448.06 95.1579 1449.05 94.9216 1450.03 95.0281C1451.01 95.1345 1451.91 95.575 1452.51 96.2525C1453.12 96.9301 1453.39 97.7893 1453.27 98.6411L1452.39 104.713H1458.27C1459.26 104.713 1460.21 105.054 1460.91 105.661C1461.61 106.268 1462 107.091 1462 107.95C1462 108.808 1461.61 109.631 1460.91 110.238C1460.21 110.845 1459.26 111.186 1458.27 111.186H1451.46L1450.22 119.817H1457.03C1458.02 119.817 1458.96 120.158 1459.66 120.765C1460.36 121.372 1460.76 122.195 1460.76 123.054C1460.76 123.912 1460.36 124.735 1459.66 125.342C1458.96 125.949 1458.02 126.29 1457.03 126.29H1449.29L1448.3 133.165C1448.17 134.016 1447.67 134.791 1446.89 135.318C1446.11 135.845 1445.11 136.081 1444.13 135.975C1443.15 135.869 1442.26 135.428 1441.65 134.751C1441.04 134.073 1440.77 133.214 1440.89 132.362L1441.77 126.29H1431.88L1430.89 133.165C1430.83 133.586 1430.67 133.994 1430.43 134.363C1430.19 134.733 1429.87 135.057 1429.48 135.318C1429.09 135.579 1428.65 135.771 1428.18 135.884C1427.71 135.997 1427.21 136.028 1426.73 135.975C1426.24 135.922 1425.77 135.787 1425.35 135.577C1424.92 135.367 1424.55 135.086 1424.25 134.751C1423.95 134.415 1423.72 134.031 1423.59 133.622C1423.46 133.212 1423.43 132.784 1423.49 132.362L1424.36 126.29H1419.73C1418.74 126.29 1417.79 125.949 1417.09 125.342C1416.39 124.735 1416 123.912 1416 123.054C1416 122.195 1416.39 121.372 1417.09 120.765C1417.79 120.158 1418.74 119.817 1419.73 119.817H1425.29L1426.54 111.186H1420.97C1419.98 111.186 1419.04 110.845 1418.34 110.238C1417.64 109.631 1417.24 108.808 1417.24 107.95C1417.24 107.091 1417.64 106.268 1418.34 105.661C1419.04 105.054 1419.98 104.713 1420.97 104.713H1427.47L1428.46 97.8385C1428.52 97.4165 1428.68 97.009 1428.92 96.6392C1429.16 96.2694 1429.49 95.9446 1429.87 95.6833C1430.26 95.422 1430.7 95.2293 1431.17 95.1163C1431.65 95.0034 1432.14 94.9744 1432.62 95.027ZM1442.7 119.817L1443.95 111.186H1434.06L1432.82 119.817H1442.7Z" fill="white" fill-opacity="0.15"/>
<path fill-rule="evenodd" clip-rule="evenodd" d="M1229.89 39.3189C1230.15 39.0407 1230.46 38.8119 1230.79 38.6456C1231.12 38.4793 1231.47 38.3788 1231.82 38.3497C1232.17 38.3207 1232.52 38.3637 1232.83 38.4764C1233.15 38.589 1233.43 38.7691 1233.67 39.0063L1237.03 42.4184L1241.71 36.2574L1237.9 32.3935C1237.43 31.9149 1237.19 31.2329 1237.23 30.4974C1237.28 29.762 1237.6 29.0334 1238.13 28.4719C1238.66 27.9105 1239.36 27.5621 1240.06 27.5035C1240.77 27.4449 1241.44 27.6809 1241.91 28.1595L1245.27 31.5716L1248.05 27.9101C1248.52 27.2936 1249.18 26.8634 1249.89 26.7141C1250.59 26.5648 1251.29 26.7086 1251.83 27.1139C1252.36 27.5191 1252.68 28.1527 1252.73 28.8751C1252.78 29.5976 1252.54 30.3498 1252.07 30.9662L1248.85 35.2089L1253.62 40.0585L1256.85 35.8159C1257.31 35.1994 1257.98 34.7692 1258.68 34.6199C1259.39 34.4706 1260.09 34.6144 1260.62 35.0197C1261.16 35.4249 1261.48 36.0585 1261.53 36.781C1261.57 37.5034 1261.34 38.2556 1260.87 38.8721L1257.2 43.6958L1261.01 47.5581C1261.48 48.0367 1261.72 48.7188 1261.68 49.4542C1261.64 50.1896 1261.32 50.9182 1260.78 51.4797C1260.25 52.0412 1259.56 52.3895 1258.85 52.4481C1258.14 52.5067 1257.48 52.2707 1257.01 51.7921L1253.65 48.3816L1248.96 54.5425L1252.77 58.4049C1253 58.6419 1253.18 58.9313 1253.3 59.2566C1253.41 59.5819 1253.46 59.9368 1253.44 60.301C1253.42 60.6651 1253.33 61.0314 1253.18 61.3789C1253.02 61.7265 1252.81 62.0484 1252.54 62.3265C1252.28 62.6045 1251.98 62.8331 1251.64 62.9992C1251.31 63.1654 1250.96 63.2658 1250.61 63.2948C1250.26 63.3239 1249.91 63.2809 1249.6 63.1683C1249.28 63.0558 1249 62.8759 1248.77 62.6389L1245.41 59.2283L1243.21 62.1151C1242.74 62.7315 1242.08 63.1617 1241.37 63.3111C1240.67 63.4604 1239.97 63.3166 1239.44 62.9113C1238.9 62.506 1238.58 61.8725 1238.53 61.15C1238.48 60.4276 1238.72 59.6754 1239.19 59.0589L1241.82 55.5911L1237.05 50.7414L1234.41 54.2093C1233.95 54.8257 1233.28 55.2559 1232.58 55.4052C1231.87 55.5546 1231.17 55.4108 1230.64 55.0055C1230.1 54.6002 1229.78 53.9667 1229.73 53.2442C1229.69 52.5217 1229.92 51.7696 1230.39 51.1531L1233.47 47.1042L1229.66 43.2403C1229.43 43.0035 1229.25 42.7142 1229.14 42.3889C1229.02 42.0636 1228.97 41.7087 1228.99 41.3444C1229.01 40.9802 1229.1 40.6137 1229.26 40.266C1229.41 39.9183 1229.62 39.5971 1229.89 39.3189ZM1250.07 44.7412L1245.29 39.8916L1240.61 46.0541L1245.38 50.9037L1250.07 44.7412Z" fill="white" fill-opacity="0.15"/>
<path fill-rule="evenodd" clip-rule="evenodd" d="M1269.81 135.958C1262.5 134.415 1251.91 130.994 1248.6 123.829C1243.08 111.858 1250.72 101.699 1262.92 106.288C1266.6 92.389 1278.36 91.1692 1283.89 103.138C1287.19 110.305 1283.6 122.042 1280.52 129.673C1279.13 133.126 1278.44 134.854 1276.6 135.93C1274.77 137.006 1273.11 136.657 1269.81 135.958ZM1271.63 103.302C1271.98 103.096 1272.39 103.059 1272.77 103.2C1273.16 103.341 1273.47 103.647 1273.66 104.052L1274.83 106.595L1277.04 105.302C1277.39 105.096 1277.8 105.059 1278.18 105.2C1278.56 105.341 1278.88 105.647 1279.07 106.052C1279.25 106.456 1279.29 106.926 1279.18 107.358C1279.06 107.789 1278.8 108.147 1278.45 108.353L1276.24 109.646L1277.42 112.189C1277.6 112.594 1277.64 113.064 1277.53 113.495C1277.41 113.927 1277.15 114.285 1276.8 114.491C1276.45 114.697 1276.03 114.733 1275.65 114.593C1275.27 114.452 1274.96 114.146 1274.77 113.741L1273.6 111.198L1271.39 112.491C1271.04 112.697 1270.63 112.733 1270.25 112.593C1269.87 112.452 1269.55 112.146 1269.36 111.741C1269.18 111.336 1269.14 110.866 1269.25 110.435C1269.37 110.003 1269.63 109.645 1269.98 109.439L1272.19 108.146L1271.01 105.603C1270.83 105.199 1270.79 104.729 1270.9 104.297C1271.02 103.865 1271.28 103.507 1271.63 103.302Z" fill="white" fill-opacity="0.15"/>
<path d="M1166.57 90.2156C1167.87 89.4146 1169 88.332 1169.9 87.0337C1170.79 85.7355 1171.42 84.2486 1171.76 82.6637C1172.1 81.0788 1172.14 79.429 1171.87 77.8147C1171.59 76.2004 1171.02 74.6553 1170.19 73.2735C1168.47 70.4463 1165.83 68.4133 1162.81 67.5938C1159.79 66.7743 1156.62 67.2308 1153.96 68.8691L1143.94 75.4055L1137.67 64.4493C1135.96 61.6221 1133.32 59.589 1130.3 58.7695C1127.28 57.95 1124.11 58.4065 1121.44 60.0449C1120.14 60.8459 1119 61.9285 1118.11 63.2268C1117.22 64.5251 1116.58 66.0119 1116.24 67.5968C1115.91 69.1817 1115.87 70.8315 1116.14 72.4458C1116.41 74.0601 1116.98 75.6052 1117.82 76.987L1136.76 109.045L1166.57 90.2156ZM1148.52 53.9985C1151.54 54.8183 1154.71 54.3156 1157.34 52.6012C1159.96 50.8868 1161.83 48.1011 1162.52 44.8568C1163.21 41.6125 1162.68 38.1755 1161.03 35.3018C1159.38 32.4281 1156.76 30.3532 1153.74 29.5335C1150.72 28.7137 1147.55 29.2163 1144.92 30.9308C1142.3 32.6452 1140.43 35.4309 1139.74 38.6752C1139.05 41.9195 1139.58 45.3565 1141.23 48.2302C1142.87 51.1039 1145.5 53.1788 1148.52 53.9985Z" fill="white" fill-opacity="0.15" stroke="white" stroke-opacity="0.15" stroke-linecap="round" stroke-linejoin="round"/>
<path d="M1346 125C1350.51 125 1354.83 123.209 1358.02 120.021C1361.21 116.833 1363 112.509 1363 108C1363 103.491 1361.21 99.1673 1358.02 95.9792C1354.83 92.7911 1350.51 91 1346 91C1341.49 91 1337.17 92.7911 1333.98 95.9792C1330.79 99.1673 1329 103.491 1329 108C1329 112.509 1330.79 116.833 1333.98 120.021C1337.17 123.209 1341.49 125 1346 125Z" stroke="white" stroke-opacity="0.15" stroke-width="2" stroke-linecap="round" stroke-linejoin="round"/>
<path d="M1351.67 115.556L1346 100.444L1340.33 115.556M1349.78 111.778H1342.22" stroke="white" stroke-opacity="0.15" stroke-width="2" stroke-linecap="round" stroke-linejoin="round"/>
<path d="M1056.57 68.9884C1060.67 67.1189 1063.86 63.6961 1065.44 59.473C1067.02 55.2499 1066.86 50.5725 1064.99 46.4697C1063.12 42.3669 1059.7 39.1747 1055.47 37.5956C1051.25 36.0164 1046.57 36.1795 1042.47 38.049C1038.37 39.9185 1035.17 43.3413 1033.6 47.5644C1032.02 51.7875 1032.18 56.4649 1034.05 60.5677C1035.92 64.6705 1039.34 67.8626 1043.56 69.4418C1047.79 71.021 1052.46 70.8579 1056.57 68.9884Z" stroke="white" stroke-opacity="0.15" stroke-width="2" stroke-linecap="round" stroke-linejoin="round"/>
<path d="M1057.81 58.0444L1046.39 46.6433L1047.5 62.7438M1054.52 55.39L1047.65 58.5229" stroke="white" stroke-opacity="0.15" stroke-width="2" stroke-linecap="round" stroke-linejoin="round"/>
</svg>
