<svg width="64" height="64" viewBox="0 0 64 64" fill="none" xmlns="http://www.w3.org/2000/svg">
<g clip-path="url(#clip0_23_20)">
<circle cx="32" cy="32" r="32" fill="#18181B" fill-opacity="0.4"/>
<path d="M32.0003 43.6666C32.4085 43.6667 32.8025 43.8166 33.1076 44.0878C33.4126 44.3591 33.6075 44.7329 33.6553 45.1383L33.6669 45.3333V47C33.6665 47.4248 33.5038 47.8334 33.2122 48.1423C32.9206 48.4512 32.522 48.637 32.0979 48.6619C31.6739 48.6868 31.2563 48.5489 30.9305 48.2762C30.6048 48.0036 30.3954 47.6168 30.3453 47.195L30.3336 47V45.3333C30.3336 44.8913 30.5092 44.4674 30.8218 44.1548C31.1343 43.8422 31.5582 43.6666 32.0003 43.6666ZM42.5219 40.1833L42.6786 40.3216L43.8453 41.4883C44.1442 41.7882 44.3177 42.1907 44.3306 42.614C44.3436 43.0372 44.1949 43.4495 43.9149 43.7671C43.6348 44.0847 43.2443 44.2838 42.8228 44.324C42.4013 44.3641 41.9803 44.2423 41.6453 43.9833L41.4886 43.845L40.3219 42.6783C40.0343 42.3912 39.8615 42.0089 39.836 41.6033C39.8105 41.1977 39.9341 40.7968 40.1835 40.4759C40.4329 40.1551 40.7909 39.9364 41.1903 39.861C41.5896 39.7857 42.0027 39.8588 42.3519 40.0666L42.5219 40.1833ZM23.6786 40.3216C23.9656 40.6086 24.1379 40.9905 24.1634 41.3955C24.1889 41.8006 24.0657 42.201 23.8169 42.5216L23.6786 42.6783L22.5119 43.845C22.212 44.1439 21.8095 44.3174 21.3863 44.3304C20.963 44.3433 20.5507 44.1946 20.2331 43.9146C19.9155 43.6345 19.7164 43.2441 19.6763 42.8225C19.6361 42.401 19.7579 41.98 20.0169 41.645L20.1553 41.4883L21.3219 40.3216C21.6345 40.0092 22.0583 39.8337 22.5003 39.8337C22.9422 39.8337 23.3661 40.0092 23.6786 40.3216ZM18.6669 30.3333C19.0917 30.3338 19.5003 30.4964 19.8092 30.7881C20.1181 31.0797 20.304 31.4782 20.3289 31.9023C20.3538 32.3264 20.2158 32.7439 19.9432 33.0697C19.6705 33.3955 19.2838 33.6048 18.8619 33.655L18.6669 33.6666H17.0003C16.5755 33.6662 16.1669 33.5035 15.858 33.2119C15.5491 32.9203 15.3632 32.5217 15.3383 32.0977C15.3134 31.6736 15.4514 31.256 15.724 30.9303C15.9967 30.6045 16.3834 30.3952 16.8053 30.345L17.0003 30.3333H18.6669ZM47.0003 30.3333C47.4251 30.3338 47.8337 30.4964 48.1425 30.7881C48.4514 31.0797 48.6373 31.4782 48.6622 31.9023C48.6871 32.3264 48.5491 32.7439 48.2765 33.0697C48.0038 33.3955 47.6171 33.6048 47.1953 33.655L47.0003 33.6666H45.3336C44.9088 33.6662 44.5002 33.5035 44.1913 33.2119C43.8824 32.9203 43.6965 32.5217 43.6716 32.0977C43.6468 31.6736 43.7847 31.256 44.0574 30.9303C44.33 30.6045 44.7168 30.3952 45.1386 30.345L45.3336 30.3333H47.0003ZM22.3553 20.0166L22.5119 20.155L23.6786 21.3216C23.9775 21.6216 24.1511 22.024 24.164 22.4473C24.1769 22.8705 24.0282 23.2828 23.7482 23.6004C23.4681 23.9181 23.0777 24.1172 22.6561 24.1573C22.2346 24.1975 21.8136 24.0757 21.4786 23.8166L21.3219 23.6783L20.1553 22.5116C19.8688 22.2244 19.6968 21.8426 19.6717 21.4377C19.6466 21.0328 19.77 20.6326 20.0189 20.3122C20.2677 19.9918 20.6249 19.7732 21.0234 19.6973C21.4219 19.6214 21.8344 19.6935 22.1836 19.9L22.3553 20.0166ZM43.8453 20.155C44.1322 20.442 44.3046 20.8238 44.3301 21.2288C44.3556 21.6339 44.2324 22.0343 43.9836 22.355L43.8453 22.5116L42.6786 23.6783C42.3787 23.9772 41.9762 24.1508 41.553 24.1637C41.1297 24.1766 40.7174 24.028 40.3998 23.7479C40.0822 23.4678 39.8831 23.0774 39.8429 22.6559C39.8028 22.2343 39.9246 21.8133 40.1836 21.4783L40.3219 21.3216L41.4886 20.155C41.8011 19.8425 42.225 19.667 42.6669 19.667C43.1089 19.667 43.5327 19.8425 43.8453 20.155ZM32.0003 15.3333C32.4085 15.3334 32.8025 15.4832 33.1076 15.7545C33.4126 16.0258 33.6075 16.3996 33.6553 16.805L33.6669 17V18.6666C33.6665 19.0914 33.5038 19.5 33.2122 19.8089C32.9206 20.1178 32.522 20.3037 32.0979 20.3286C31.6739 20.3535 31.2563 20.2155 30.9305 19.9429C30.6048 19.6702 30.3954 19.2835 30.3453 18.8616L30.3336 18.6666V17C30.3336 16.558 30.5092 16.134 30.8218 15.8215C31.1343 15.5089 31.5582 15.3333 32.0003 15.3333ZM32.0003 23.6666C33.6331 23.6666 35.2299 24.1461 36.5925 25.0458C37.955 25.9455 39.0233 27.2256 39.6645 28.7272C40.3058 30.2289 40.4918 31.8858 40.1994 33.4922C39.907 35.0986 39.1492 36.5837 38.02 37.7631C36.8908 38.9425 35.44 39.7641 33.8478 40.126C32.2556 40.4879 30.5922 40.3741 29.0642 39.7988C27.5361 39.2234 26.2107 38.2118 25.2527 36.8896C24.2947 35.5674 23.7461 33.9929 23.6753 32.3616L23.6669 32L23.6753 31.6383C23.7685 29.4929 24.6863 27.4663 26.2373 25.9811C27.7883 24.4959 29.8528 23.6668 32.0003 23.6666Z" fill="white"/>
</g>
<defs>
<clipPath id="clip0_23_20">
<rect width="64" height="64" fill="white"/>
</clipPath>
</defs>
</svg>
